<svg width="700" height="492" viewBox="0 0 700 492" fill="none" xmlns="http://www.w3.org/2000/svg">
<rect width="700" height="492" fill="white"/>
<line x1="283.577" y1="79.4739" x2="411.587" y2="80.6835" stroke="#2D2D2D" stroke-width="3"/>
<path d="M239.619 41.2807C239.756 41.622 239.98 42.1841 240.293 42.9671C240.606 43.7301 240.957 44.6035 241.348 45.5872C241.759 46.5711 242.179 47.6152 242.609 48.7193C243.058 49.8236 243.478 50.8676 243.869 51.8513C244.26 52.835 244.611 53.7184 244.924 54.5014C245.237 55.2644 245.462 55.8165 245.598 56.1578C245.618 56.198 245.667 56.3385 245.744 56.5792C245.822 56.82 245.88 57.0305 245.918 57.2109L246.228 56.1638C246.372 55.8251 246.607 55.2773 246.934 54.5204C247.261 53.7434 247.63 52.8669 248.039 51.8907C248.448 50.9145 248.878 49.8785 249.328 48.7828C249.799 47.6871 250.238 46.6513 250.648 45.6751C251.077 44.6991 251.455 43.8326 251.782 43.0757C252.11 42.2987 252.345 41.7409 252.488 41.4023L255.728 41.4329C255.605 41.7117 255.381 42.2196 255.054 42.9566C254.747 43.6737 254.368 44.5502 253.919 45.586C253.469 46.6218 252.968 47.7571 252.416 48.9919C251.885 50.227 251.333 51.4818 250.761 52.7565C250.209 54.0313 249.657 55.2861 249.105 56.521C248.573 57.756 248.083 58.8914 247.633 59.9272C247.203 60.9632 246.825 61.8497 246.498 62.5866C246.191 63.3038 245.976 63.8018 245.854 64.0806L236.379 41.2501L239.619 41.2807ZM258.47 41.4588L261.74 41.4897L261.535 63.2387L258.265 63.2078L258.47 41.4588ZM266.878 63.2892L267.083 41.5402L281.363 41.6751L281.335 44.645L270.355 44.5412L270.295 50.901L280.074 50.9934L280.046 54.0232L270.266 53.9308L270.206 60.2905L281.606 60.3982L281.577 63.4281L266.878 63.2892ZM311.126 42.0464C310.388 43.9395 309.599 45.9321 308.759 48.0243C307.94 50.0966 307.12 52.139 306.301 54.1513C305.502 56.1638 304.744 58.0768 304.027 59.8901C303.31 61.7034 302.705 63.2677 302.213 64.5831L297.468 52.3878C297.409 52.2272 297.36 52.1067 297.321 52.0264C297.282 51.946 297.243 51.8256 297.205 51.6652C297.204 51.7452 297.193 51.8251 297.172 51.9049C297.152 51.9648 297.131 52.0346 297.11 52.1144C297.09 52.1942 297.069 52.274 297.048 52.3538C296.353 53.9073 295.669 55.4309 294.995 56.9246C294.709 57.5619 294.412 58.2192 294.106 58.8963C293.8 59.5734 293.503 60.2507 293.217 60.928C292.931 61.5853 292.645 62.2226 292.359 62.84C292.093 63.4575 291.848 64.0152 291.623 64.5131C290.219 60.7196 288.804 56.9361 287.38 53.1625C285.956 49.3889 284.541 45.5953 283.137 41.7819L286.827 41.8168C287.295 43.1412 287.772 44.4758 288.259 45.8205C288.767 47.1653 289.234 48.4598 289.663 49.7039C290.111 50.9482 290.51 52.102 290.86 53.1654C291.21 54.2287 291.482 55.1313 291.675 55.8732L291.905 56.9254C291.926 56.8256 291.977 56.6661 292.059 56.4468C292.141 56.2076 292.203 56.0382 292.244 55.9386C292.265 55.8588 292.336 55.6794 292.459 55.4006C292.582 55.1217 292.725 54.7931 292.888 54.4146C293.052 54.0161 293.236 53.5878 293.441 53.1297C293.645 52.6717 293.849 52.2036 294.054 51.7255C294.544 50.6301 295.086 49.4151 295.678 48.0807C295.347 47.1375 295.056 46.2547 294.803 45.4323C294.57 44.73 294.346 44.0379 294.133 43.3559C293.939 42.674 293.794 42.1826 293.697 41.8817L296.847 41.9114C297.685 44.1795 298.465 46.2769 299.187 48.2038C299.48 49.0266 299.772 49.8494 300.064 50.6722C300.376 51.4952 300.659 52.2579 300.912 52.9603C301.186 53.663 301.42 54.2852 301.615 54.8271C301.81 55.3489 301.946 55.7302 302.024 55.971C302.082 56.1515 302.121 56.3319 302.139 56.5121C302.177 56.6725 302.216 56.8428 302.254 57.0232C302.296 56.8436 302.328 56.6639 302.349 56.4841C302.391 56.3045 302.433 56.1348 302.474 55.9752C302.661 55.197 302.95 54.2696 303.34 53.1933C303.731 52.1169 304.161 50.9609 304.633 49.7253C305.125 48.4899 305.637 47.2147 306.169 45.8997C306.702 44.5647 307.214 43.2694 307.706 42.014L311.126 42.0464ZM320.967 41.0893C321.144 41.371 321.509 41.9145 322.061 42.7197C322.634 43.5052 323.285 44.4213 324.016 45.4683C324.766 46.5154 325.555 47.6329 326.384 48.8208C327.213 49.9887 327.993 51.0961 328.723 52.1431C329.453 53.17 330.085 54.066 330.617 54.8311C331.17 55.5963 331.535 56.0998 331.713 56.3415C331.774 56.2421 331.967 55.9739 332.291 55.5369C332.615 55.1 333.01 54.5537 333.476 53.8981C333.963 53.2426 334.51 52.5078 335.117 51.6935C335.725 50.8592 336.343 50.015 336.971 49.1609C337.62 48.287 338.248 47.4229 338.856 46.5686C339.484 45.7145 340.061 44.9399 340.588 44.2448C341.115 43.5298 341.561 42.914 341.925 42.3974C342.31 41.861 342.584 41.4936 342.746 41.2951L342.531 64.0041L339.051 63.9712L339.167 51.7917C339.168 51.6317 339.18 51.4618 339.201 51.282C339.243 51.1024 339.264 50.9726 339.265 50.8926C339.083 51.1309 338.789 51.5382 338.383 52.1143C337.998 52.6707 337.542 53.3165 337.015 54.0515C336.508 54.7667 335.971 55.5317 335.403 56.3464C334.836 57.1411 334.299 57.896 333.792 58.6113C333.285 59.3265 332.839 59.9623 332.454 60.5187C332.069 61.0551 331.805 61.4326 331.663 61.6513C331.525 61.47 331.248 61.0973 330.834 60.5334C330.439 59.9496 329.965 59.2751 329.413 58.5099C328.88 57.7448 328.307 56.9294 327.696 56.0635C327.104 55.1979 326.551 54.3927 326.038 53.6478C325.525 52.9029 325.081 52.2687 324.706 51.7451C324.331 51.2015 324.115 50.8695 324.056 50.7489C324.055 50.8289 324.064 50.959 324.082 51.1392C324.12 51.3195 324.139 51.4897 324.137 51.6497L324.022 63.8292L320.752 63.7983L320.967 41.0893ZM356.767 56.9683L356.7 64.1379L353.4 64.1068L353.467 56.9371C353.33 56.7158 353.054 56.2331 352.641 55.4892C352.248 54.7455 351.776 53.871 351.226 52.8657C350.695 51.8407 350.116 50.7551 349.487 49.6091C348.877 48.4633 348.297 47.3878 347.747 46.3826C347.217 45.3575 346.745 44.473 346.332 43.7291C345.939 42.9853 345.673 42.5028 345.536 42.2815L349.255 42.3166C349.433 42.6183 349.747 43.2013 350.199 44.0656C350.651 44.9099 351.152 45.8747 351.702 46.96C352.252 48.0252 352.811 49.1105 353.381 50.216C353.951 51.3014 354.432 52.236 354.825 53.0197L355.145 54.0128C355.227 53.8536 355.298 53.6942 355.36 53.5348C355.421 53.3554 355.483 53.186 355.544 53.0265C355.972 52.2505 356.471 51.3252 357.041 50.2505C357.611 49.1559 358.171 48.0811 358.721 47.0263C359.291 45.9516 359.801 44.9964 360.248 44.1606C360.717 43.305 361.042 42.728 361.225 42.4297L364.915 42.4646L356.767 56.9683ZM400.214 42.8881C399.476 44.7813 398.687 46.7739 397.847 48.866C397.028 50.9384 396.208 52.9807 395.389 54.9931C394.59 57.0056 393.832 58.9186 393.115 60.7319C392.398 62.5452 391.793 64.1095 391.3 65.4249L386.556 53.2296C386.497 53.069 386.448 52.9485 386.409 52.8682C386.37 52.7878 386.331 52.6674 386.292 52.507C386.292 52.587 386.281 52.6669 386.26 52.7467C386.239 52.8065 386.219 52.8764 386.198 52.9562C386.177 53.036 386.157 53.1158 386.136 53.1956C385.441 54.7491 384.757 56.2727 384.083 57.7664C383.796 58.4037 383.5 59.0609 383.194 59.7381C382.887 60.4152 382.591 61.0924 382.305 61.7698C382.018 62.4271 381.732 63.0644 381.447 63.6817C381.181 64.2993 380.935 64.857 380.711 65.3549C379.306 61.5614 377.892 57.7779 376.468 54.0043C375.043 50.2306 373.629 46.4371 372.225 42.6237L375.915 42.6585C376.382 43.983 376.86 45.3176 377.347 46.6623C377.854 48.0071 378.322 49.3016 378.751 50.5457C379.199 51.79 379.598 52.9438 379.948 54.0072C380.298 55.0705 380.569 55.9731 380.762 56.715L380.992 57.7672C381.013 57.6674 381.065 57.5079 381.147 57.2886C381.229 57.0494 381.291 56.88 381.332 56.7804C381.352 56.7005 381.424 56.5212 381.547 56.2424C381.669 55.9635 381.813 55.6348 381.976 55.2564C382.14 54.8579 382.324 54.4296 382.528 53.9715C382.733 53.5134 382.937 53.0454 383.142 52.5673C383.632 51.4719 384.173 50.2569 384.766 48.9225C384.435 47.9793 384.143 47.0965 383.891 46.2741C383.658 45.5718 383.434 44.8797 383.221 44.1976C383.027 43.5158 382.882 43.0244 382.785 42.7235L385.934 42.7532C386.773 45.0212 387.553 47.1187 388.275 49.0456C388.567 49.8684 388.86 50.6912 389.152 51.514C389.464 52.337 389.747 53.0997 390 53.8021C390.274 54.5047 390.508 55.127 390.703 55.6688C390.898 56.1907 391.034 56.572 391.112 56.8128C391.17 56.9933 391.208 57.1737 391.227 57.3539C391.265 57.5142 391.304 57.6846 391.342 57.865C391.384 57.6854 391.415 57.5057 391.437 57.3259C391.479 57.1462 391.52 56.9766 391.562 56.817C391.749 56.0388 392.038 55.1114 392.428 54.0351C392.818 52.9587 393.249 51.8027 393.721 50.5671C394.213 49.3317 394.725 48.0565 395.257 46.7415C395.79 45.4065 396.302 44.1112 396.794 42.8558L400.214 42.8881ZM400.767 53.6938C400.781 52.1939 401.084 50.7767 401.677 49.4423C402.27 48.0878 403.071 46.9053 404.08 45.8948C405.11 44.8845 406.298 44.0957 407.643 43.5284C408.989 42.9411 410.431 42.6547 411.971 42.6692C413.491 42.6836 414.918 42.9971 416.253 43.6097C417.607 44.2025 418.779 45.0137 419.77 46.0431C420.78 47.0727 421.569 48.2702 422.136 49.6356C422.723 50.9812 423.01 52.404 422.996 53.9039C422.981 55.4438 422.667 56.8809 422.055 58.2152C421.462 59.5497 420.651 60.722 419.621 61.7324C418.612 62.7229 417.425 63.5017 416.059 64.0688C414.714 64.6361 413.281 64.9126 411.761 64.8982C410.221 64.8837 408.784 64.5801 407.45 63.9875C406.115 63.3948 404.943 62.5937 403.932 61.5841C402.942 60.5547 402.163 59.3673 401.596 58.0219C401.028 56.6765 400.752 55.2338 400.767 53.6938ZM404.036 53.7547C404.026 54.8547 404.216 55.8965 404.607 56.8803C405.018 57.8442 405.58 58.6895 406.293 59.4163C407.006 60.1431 407.841 60.721 408.797 61.1501C409.752 61.5791 410.77 61.7987 411.85 61.8089C412.93 61.8191 413.942 61.6187 414.886 61.2076C415.85 60.7967 416.686 60.2346 417.392 59.5212C418.119 58.808 418.687 57.9734 419.096 57.0172C419.525 56.0412 419.745 54.9932 419.756 53.8733C419.766 52.7733 419.566 51.7414 419.155 50.7775C418.764 49.7937 418.212 48.9385 417.499 48.2117C416.786 47.4849 415.951 46.907 414.995 46.478C414.059 46.0491 413.051 45.8296 411.972 45.8194C410.892 45.8092 409.87 46.0095 408.906 46.4204C407.942 46.8313 407.096 47.3934 406.37 48.1065C405.663 48.8199 405.095 49.6646 404.666 50.6406C404.256 51.6167 404.047 52.6548 404.036 53.7547ZM426.714 64.7995L426.92 43.0505L432.86 43.1066C434 43.1174 435.038 43.2772 435.975 43.5861C436.932 43.8951 437.748 44.3529 438.422 44.9593C439.117 45.5458 439.65 46.2709 440.022 47.1345C440.394 47.978 440.575 48.9498 440.564 50.0497C440.559 50.6497 440.493 51.2491 440.367 51.8479C440.242 52.4268 440.036 52.9949 439.751 53.5522C439.486 54.0897 439.141 54.5965 438.717 55.0725C438.292 55.5285 437.779 55.9137 437.176 56.228C437.964 57.4955 438.821 58.9036 439.746 60.4524C440.672 61.9813 441.607 63.4802 442.554 64.9492L438.624 64.912C438.23 64.2883 437.816 63.6344 437.382 62.9502C436.969 62.2663 436.545 61.5923 436.111 60.9281C435.698 60.2442 435.284 59.5803 434.87 58.9363C434.476 58.2726 434.102 57.659 433.747 57.0956L433.147 57.09L430.088 57.061L430.014 64.8307L426.714 64.7995ZM430.117 53.9712L433.087 53.9992C433.887 54.0068 434.558 53.8831 435.1 53.6282C435.643 53.3534 436.066 53.0173 436.37 52.6202C436.694 52.2232 436.918 51.7953 437.042 51.3365C437.186 50.8778 437.26 50.4585 437.264 50.0785C437.267 49.6986 437.201 49.2879 437.066 48.8466C436.95 48.3855 436.734 47.9634 436.417 47.5804C436.101 47.1774 435.674 46.8434 435.137 46.5783C434.619 46.3134 433.971 46.1772 433.191 46.1699L430.191 46.1415L430.117 53.9712ZM458.451 65.0994C457.759 64.1928 457.097 63.3265 456.465 62.5005C455.833 61.6745 455.211 60.8486 454.599 60.0228C453.986 59.1969 453.364 58.361 452.732 57.515C452.12 56.6692 451.468 55.793 450.777 54.8864C450.514 55.164 450.262 55.4216 450.02 55.6593C449.778 55.877 449.515 56.1046 449.233 56.3419C449.219 57.8818 449.205 59.3318 449.192 60.6917C449.199 62.0318 449.196 63.4719 449.181 65.0118L445.551 64.9775L445.757 43.2285L449.387 43.2628L449.31 51.3924C449.308 51.5724 449.286 51.7522 449.245 51.9318C449.223 52.0916 449.212 52.2615 449.21 52.4415C449.311 52.3025 449.412 52.1834 449.513 52.0844C449.614 51.9653 449.716 51.8263 449.817 51.6672C451.25 50.3407 452.633 48.9637 453.967 47.5362C455.3 46.0888 456.684 44.6918 458.116 43.3453L462.286 43.3847C460.771 44.9304 459.267 46.4863 457.772 48.0522C456.297 49.6183 454.802 51.1743 453.288 52.7201C454.117 53.8079 454.907 54.8655 455.658 55.8926C456.428 56.8999 457.179 57.9071 457.909 58.914C458.66 59.9211 459.41 60.9383 460.16 61.9654C460.911 62.9925 461.691 64.05 462.501 65.1377L458.451 65.0994Z" fill="#2D2D2D"/>
</svg>
