<svg width="711" height="740" viewBox="0 0 711 740" fill="none" xmlns="http://www.w3.org/2000/svg">
<rect x="6.10352e-05" y="283.484" width="700" height="499" transform="rotate(-23.8897 6.10352e-05 283.484)" fill="white"/>
<line x1="307.393" y1="239.473" x2="424.44" y2="187.629" stroke="#2D2D2D" stroke-width="3"/>
<path d="M251.573 222.881C251.839 223.135 252.276 223.554 252.885 224.137C253.485 224.703 254.166 225.352 254.929 226.086C255.71 226.812 256.524 227.589 257.372 228.417C258.238 229.236 259.052 230.013 259.815 230.747C260.578 231.481 261.263 232.14 261.872 232.723C262.472 233.289 262.905 233.698 263.171 233.952C263.205 233.981 263.308 234.089 263.478 234.276C263.648 234.463 263.788 234.63 263.898 234.779L263.747 233.697C263.737 233.33 263.725 232.734 263.71 231.909C263.686 231.066 263.659 230.116 263.628 229.058C263.597 228 263.56 226.879 263.516 225.695C263.491 224.503 263.463 223.378 263.432 222.32C263.419 221.254 263.405 220.309 263.39 219.484C263.367 218.641 263.35 218.036 263.341 217.669L266.303 216.356C266.307 216.661 266.312 217.216 266.319 218.023C266.337 218.802 266.355 219.757 266.374 220.886C266.392 222.015 266.406 223.256 266.414 224.608C266.441 225.953 266.458 227.323 266.464 228.72C266.489 230.109 266.505 231.48 266.514 232.833C266.54 234.177 266.563 235.414 266.582 236.543C266.619 237.664 266.641 238.627 266.649 239.434C266.666 240.213 266.676 240.756 266.68 241.06L248.611 224.193L251.573 222.881ZM268.811 215.246L271.8 213.921L280.609 233.808L277.619 235.132L268.811 215.246ZM285.494 231.644L276.686 211.758L289.742 205.974L290.945 208.69L280.906 213.137L283.482 218.952L292.424 214.991L293.651 217.761L284.709 221.722L287.284 227.537L297.708 222.92L298.935 225.691L285.494 231.644ZM316.994 194.002C317.105 196.031 317.211 198.171 317.312 200.424C317.423 202.649 317.522 204.848 317.608 207.019C317.713 209.181 317.814 211.237 317.911 213.184C318.008 215.132 318.105 216.806 318.2 218.208L308.836 209.067C308.717 208.945 308.622 208.855 308.553 208.798C308.484 208.741 308.399 208.648 308.298 208.518C308.33 208.591 308.353 208.668 308.368 208.749C308.374 208.812 308.384 208.884 308.398 208.966C308.412 209.047 308.426 209.128 308.44 209.209C308.45 210.911 308.457 212.581 308.461 214.22C308.464 214.919 308.466 215.64 308.468 216.383C308.469 217.126 308.479 217.865 308.498 218.6C308.51 219.317 308.513 220.016 308.508 220.696C308.521 221.368 308.529 221.977 308.53 222.524C305.682 219.651 302.83 216.791 299.972 213.944C297.115 211.098 294.258 208.229 291.402 205.338L294.776 203.843C295.75 204.856 296.736 205.873 297.736 206.896C298.754 207.911 299.716 208.896 300.62 209.851C301.543 210.799 302.383 211.684 303.142 212.508C303.9 213.331 304.521 214.04 305.003 214.636L305.648 215.499C305.626 215.399 305.607 215.233 305.591 214.999C305.567 214.747 305.553 214.568 305.549 214.46C305.535 214.379 305.526 214.186 305.522 213.881C305.518 213.577 305.513 213.218 305.505 212.806C305.49 212.376 305.48 211.909 305.477 211.408C305.473 210.906 305.466 210.396 305.454 209.876C305.448 208.676 305.438 207.345 305.426 205.885C304.734 205.164 304.103 204.48 303.534 203.836C303.031 203.293 302.541 202.755 302.064 202.223C301.606 201.682 301.271 201.295 301.058 201.061L303.938 199.785C305.639 201.503 307.217 203.09 308.671 204.546C309.278 205.174 309.884 205.803 310.491 206.431C311.115 207.051 311.688 207.628 312.209 208.163C312.749 208.69 313.219 209.16 313.621 209.572C314.014 209.967 314.296 210.257 314.467 210.445C314.594 210.585 314.704 210.733 314.795 210.89C314.896 211.02 315.002 211.159 315.111 211.307C315.075 211.127 315.03 210.95 314.975 210.777C314.939 210.596 314.906 210.425 314.878 210.262C314.727 209.476 314.606 208.512 314.516 207.371C314.426 206.23 314.341 204.999 314.259 203.679C314.196 202.351 314.134 200.978 314.075 199.561C314.008 198.125 313.939 196.734 313.867 195.387L316.994 194.002ZM325.558 189.061C325.836 189.244 326.393 189.588 327.229 190.092C328.075 190.571 329.047 191.135 330.145 191.787C331.261 192.43 332.442 193.121 333.688 193.859C334.926 194.58 336.094 195.265 337.191 195.917C338.281 196.55 339.227 197.104 340.028 197.58C340.848 198.048 341.389 198.356 341.651 198.502C341.665 198.387 341.729 198.063 341.844 197.531C341.958 196.999 342.092 196.338 342.245 195.548C342.417 194.751 342.611 193.855 342.827 192.863C343.036 191.852 343.249 190.827 343.468 189.79C343.697 188.726 343.911 187.68 344.112 186.65C344.33 185.613 344.535 184.669 344.727 183.818C344.911 182.949 345.062 182.204 345.181 181.583C345.31 180.935 345.407 180.488 345.472 180.24L354.669 201.004L351.487 202.414L346.555 191.277C346.49 191.131 346.43 190.971 346.376 190.799C346.339 190.618 346.305 190.491 346.273 190.418C346.205 190.71 346.106 191.203 345.975 191.895C345.855 192.561 345.706 193.337 345.531 194.225C345.365 195.085 345.192 196.004 345.012 196.981C344.824 197.939 344.647 198.848 344.482 199.709C344.316 200.57 344.173 201.333 344.053 201.999C343.924 202.647 343.84 203.1 343.801 203.357C343.6 203.25 343.194 203.025 342.583 202.683C341.983 202.314 341.273 201.896 340.453 201.428C339.651 200.952 338.793 200.446 337.878 199.911C336.981 199.368 336.145 198.863 335.37 198.397C334.595 197.931 333.928 197.537 333.37 197.216C332.804 196.876 332.469 196.663 332.366 196.578C332.398 196.651 332.46 196.766 332.551 196.922C332.661 197.071 332.748 197.218 332.812 197.364L337.745 208.501L334.755 209.825L325.558 189.061ZM364.721 188.711L367.624 195.266L364.607 196.603L361.703 190.047C361.486 189.903 361.036 189.577 360.352 189.071C359.687 188.556 358.895 187.955 357.978 187.267C357.072 186.553 356.095 185.805 355.048 185.022C354.019 184.23 353.047 183.491 352.13 182.804C351.223 182.09 350.427 181.479 349.744 180.973C349.078 180.458 348.637 180.129 348.42 179.984L351.821 178.478C352.107 178.679 352.635 179.08 353.404 179.68C354.164 180.262 355.02 180.933 355.969 181.694C356.91 182.436 357.869 183.193 358.845 183.963C359.812 184.716 360.637 185.368 361.319 185.919L362.021 186.691C362.03 186.512 362.029 186.337 362.019 186.167C362.001 185.978 361.987 185.798 361.977 185.628C362.045 184.744 362.116 183.695 362.191 182.481C362.258 181.249 362.323 180.038 362.388 178.851C362.462 177.636 362.531 176.556 362.593 175.61C362.665 174.637 362.723 173.977 362.766 173.63L366.14 172.136L364.721 188.711ZM398.453 157.922C398.564 159.95 398.67 162.091 398.771 164.343C398.882 166.569 398.981 168.767 399.067 170.938C399.172 173.101 399.273 175.156 399.37 177.104C399.467 179.051 399.564 180.726 399.659 182.127L390.295 172.986C390.175 172.864 390.081 172.775 390.012 172.718C389.943 172.661 389.858 172.567 389.757 172.437C389.789 172.51 389.812 172.587 389.826 172.669C389.832 172.732 389.842 172.804 389.857 172.885C389.871 172.966 389.885 173.048 389.899 173.129C389.909 174.83 389.916 176.501 389.92 178.14C389.923 178.838 389.925 179.559 389.926 180.302C389.927 181.045 389.938 181.785 389.957 182.52C389.968 183.237 389.972 183.935 389.967 184.615C389.98 185.288 389.987 185.897 389.989 186.443C387.141 183.57 384.289 180.71 381.431 177.864C378.573 175.017 375.717 172.148 372.861 169.257L376.235 167.763C377.209 168.775 378.195 169.793 379.195 170.815C380.213 171.83 381.174 172.815 382.079 173.771C383.002 174.718 383.842 175.604 384.601 176.427C385.359 177.25 385.98 177.96 386.462 178.556L387.107 179.418C387.085 179.319 387.066 179.152 387.05 178.919C387.026 178.667 387.012 178.487 387.008 178.38C386.994 178.298 386.985 178.105 386.981 177.801C386.977 177.496 386.972 177.138 386.964 176.725C386.948 176.295 386.939 175.829 386.935 175.327C386.932 174.826 386.924 174.315 386.913 173.795C386.906 172.595 386.897 171.265 386.884 169.805C386.193 169.083 385.562 168.4 384.992 167.755C384.49 167.213 384 166.675 383.523 166.142C383.065 165.601 382.729 165.214 382.516 164.98L385.397 163.705C387.098 165.423 388.676 167.01 390.13 168.466C390.737 169.094 391.343 169.722 391.949 170.35C392.574 170.97 393.147 171.548 393.668 172.083C394.208 172.609 394.678 173.079 395.08 173.492C395.473 173.886 395.755 174.177 395.925 174.364C396.053 174.504 396.163 174.653 396.254 174.809C396.355 174.939 396.461 175.078 396.57 175.227C396.534 175.046 396.488 174.869 396.434 174.697C396.397 174.516 396.365 174.344 396.337 174.182C396.186 173.396 396.065 172.432 395.975 171.291C395.885 170.149 395.799 168.918 395.718 167.598C395.654 166.27 395.593 164.897 395.534 163.48C395.467 162.044 395.398 160.653 395.326 159.307L398.453 157.922ZM403.426 167.531C402.818 166.16 402.508 164.744 402.496 163.284C402.475 161.805 402.716 160.397 403.217 159.06C403.737 157.714 404.492 156.505 405.482 155.432C406.464 154.34 407.659 153.483 409.067 152.859C410.457 152.244 411.886 151.939 413.354 151.945C414.833 151.924 416.235 152.178 417.563 152.706C418.909 153.225 420.122 153.989 421.203 154.998C422.294 155.98 423.144 157.157 423.751 158.528C424.375 159.936 424.684 161.374 424.678 162.843C424.69 164.303 424.437 165.706 423.917 167.051C423.408 168.371 422.649 169.571 421.64 170.652C420.65 171.725 419.46 172.569 418.07 173.185C416.662 173.808 415.228 174.126 413.768 174.139C412.308 174.151 410.909 173.907 409.571 173.406C408.244 172.878 407.044 172.119 405.971 171.129C404.898 170.138 404.049 168.939 403.426 167.531ZM406.428 166.234C406.873 167.24 407.477 168.11 408.24 168.844C409.013 169.552 409.874 170.089 410.824 170.455C411.774 170.822 412.773 171.003 413.821 170.998C414.868 170.994 415.886 170.773 416.873 170.335C417.861 169.898 418.699 169.297 419.389 168.532C420.096 167.759 420.624 166.902 420.973 165.96C421.34 165.01 421.511 164.015 421.488 162.976C421.476 161.91 421.242 160.865 420.789 159.84C420.343 158.835 419.734 157.978 418.961 157.27C418.199 156.536 417.342 155.986 416.393 155.619C415.443 155.252 414.444 155.071 413.396 155.076C412.366 155.073 411.358 155.29 410.37 155.727C409.383 156.165 408.535 156.77 407.828 157.543C407.12 158.315 406.583 159.177 406.216 160.127C405.868 161.068 405.7 162.072 405.713 163.139C405.744 164.197 405.982 165.228 406.428 166.234ZM431.643 166.91L422.835 147.024L428.266 144.618C429.308 144.156 430.32 143.872 431.301 143.766C432.3 143.652 433.232 143.731 434.097 144.004C434.972 144.251 435.757 144.691 436.453 145.323C437.141 145.937 437.707 146.747 438.153 147.753C438.396 148.301 438.584 148.874 438.717 149.471C438.842 150.05 438.89 150.653 438.861 151.278C438.842 151.877 438.738 152.481 438.548 153.09C438.35 153.681 438.042 154.244 437.623 154.779C438.865 155.607 440.227 156.535 441.71 157.563C443.185 158.572 444.657 159.549 446.126 160.495L442.533 162.087C441.916 161.682 441.269 161.258 440.591 160.814C439.932 160.363 439.267 159.924 438.598 159.499C437.938 159.047 437.287 158.614 436.644 158.199C436.011 157.757 435.416 157.353 434.86 156.987L434.312 157.23L431.514 158.47L434.661 165.574L431.643 166.91ZM430.262 155.644L432.978 154.441C433.709 154.117 434.269 153.727 434.658 153.271C435.038 152.796 435.285 152.315 435.397 151.828C435.527 151.333 435.554 150.85 435.478 150.381C435.42 149.904 435.314 149.492 435.16 149.144C435.006 148.797 434.776 148.45 434.469 148.105C434.173 147.733 433.802 147.438 433.356 147.22C432.901 146.984 432.374 146.856 431.775 146.837C431.195 146.81 430.548 146.954 429.834 147.27L427.091 148.485L430.262 155.644ZM460.662 154.057C459.658 153.518 458.697 153.003 457.779 152.512C456.862 152.021 455.954 151.527 455.055 151.028C454.156 150.53 453.244 150.026 452.319 149.517C451.412 149 450.456 148.472 449.451 147.932C449.327 148.294 449.204 148.633 449.081 148.949C448.951 149.248 448.806 149.563 448.648 149.896C449.271 151.304 449.859 152.63 450.409 153.873C450.97 155.091 451.563 156.403 452.186 157.811L448.867 159.281L440.059 139.395L443.378 137.925L446.67 145.358C446.743 145.523 446.798 145.695 446.834 145.876C446.881 146.03 446.94 146.19 447.013 146.355C447.048 146.186 447.091 146.036 447.142 145.904C447.185 145.754 447.219 145.585 447.246 145.398C448.002 143.598 448.691 141.772 449.315 139.921C449.931 138.052 450.612 136.208 451.36 134.389L455.173 132.7C454.433 134.734 453.706 136.773 452.993 138.817C452.298 140.853 451.581 142.888 450.841 144.922C452.046 145.569 453.203 146.205 454.311 146.83C455.429 147.428 456.529 148.035 457.611 148.649C458.711 149.256 459.814 149.872 460.922 150.496C462.03 151.121 463.178 151.761 464.365 152.417L460.662 154.057Z" fill="#2D2D2D"/>
</svg>
