<svg width="23" height="50" viewBox="0 0 23 50" fill="none" xmlns="http://www.w3.org/2000/svg">
<path d="M3.26387 49.9936C2.5026 49.9952 1.76484 49.7052 1.17866 49.1739C0.848749 48.8748 0.576037 48.5074 0.376144 48.0928C0.176251 47.6782 0.0531053 47.2245 0.0137605 46.7578C-0.0255843 46.291 0.0196452 45.8204 0.146858 45.3728C0.27407 44.9252 0.480763 44.5095 0.755105 44.1494L15.3516 25.0489L1.27641 5.91274C1.00577 5.54823 0.803661 5.12882 0.681703 4.6786C0.559746 4.22839 0.520342 3.75625 0.565758 3.28933C0.611174 2.82241 0.740512 2.3699 0.946341 1.95783C1.15217 1.54576 1.43043 1.18224 1.76513 0.888164C2.10224 0.563753 2.49701 0.319054 2.92468 0.169425C3.35235 0.0197963 3.80369 -0.0315316 4.25035 0.0186602C4.69702 0.0688521 5.12938 0.219481 5.5203 0.461095C5.91122 0.702709 6.25226 1.03009 6.52201 1.42269L22.2588 22.8038C22.738 23.4415 23 24.2413 23 25.0667C23 25.8921 22.738 26.6919 22.2588 27.3295L5.96813 48.7107C5.64128 49.1419 5.22608 49.4828 4.75623 49.7057C4.28637 49.9286 3.77509 50.0272 3.26387 49.9936Z" fill="white"/>
</svg>
