<svg width="60" height="60" viewBox="0 0 60 60" fill="none" xmlns="http://www.w3.org/2000/svg">
<path d="M34.2274 0C32.8546 0 31.6831 0.48104 30.7126 1.44384C29.7423 2.40682 29.2583 3.56706 29.2583 4.92383C29.2583 6.23683 29.7421 7.37365 30.7126 8.33639C31.6831 9.29937 32.8546 9.78191 34.2274 9.78191C35.553 9.78191 36.7008 9.29937 37.6713 8.33639C38.6419 7.37365 39.1275 6.23683 39.1275 4.92383C39.1275 3.567 38.6419 2.40682 37.6713 1.44384C36.701 0.4811 35.553 0 34.2274 0ZM44.8734 9.38812C45.0152 10.1322 45.0863 11.1158 45.0863 12.3413V14.9007H41.6081V21.2681C42.6021 21.1369 43.4062 21.0732 44.0217 21.0732L45.0866 21.1371V21.2683H45.0157V33.019C45.0157 36.6956 45.5144 39.3875 46.5085 41.0945C47.8341 43.3701 50.2244 44.5071 53.6801 44.5071C56.1418 44.5071 58.2483 44.0703 60 43.1945V36.63C58.8161 37.3742 57.4902 37.7456 56.0228 37.7456C53.9399 37.7456 52.8995 36.2792 52.8995 33.3469V21.1368H55.9519C56.5201 21.1368 57.1241 21.1587 57.7632 21.2023C58.4023 21.2462 58.8389 21.2678 59.0755 21.2678V14.9004H52.8997V12.2097C52.8997 11.1595 52.9708 10.2195 53.1126 9.38776H44.8742L44.8735 9.388L44.8734 9.38812ZM12.3554 14.5726C9.13636 14.5726 6.36787 15.5582 4.048 17.5275C1.63396 19.6281 0.425702 22.2532 0.425702 25.4043C0.425702 27.505 1.08783 29.4746 2.41327 31.3125C3.59671 33.0191 4.94676 34.1141 6.4616 34.5957V34.7269C4.94676 35.3391 4.19006 36.8718 4.19006 39.3225C4.19006 41.2046 4.99418 42.6035 6.60365 43.5225V43.6538C2.20139 45.0104 0 47.5265 0 51.2025C0 54.3976 1.46787 56.7402 4.40323 58.2281C6.72245 59.4098 9.6808 60 13.2785 60C22.0361 60 26.4152 56.6081 26.4152 49.8244C26.4152 45.5795 23.0299 42.9756 16.2601 42.0131C14.6981 41.7943 13.5156 41.2699 12.7107 40.4382C12.0953 39.8695 11.7878 39.299 11.7878 38.7301C11.7878 37.1109 12.7342 36.1709 14.6272 35.9081C17.5149 35.5147 19.8706 34.2781 21.6934 32.1994C23.5159 30.1205 24.4274 27.6802 24.4274 24.8794C24.4274 24.0041 24.2381 23.0639 23.8596 22.0575C25.0907 21.7947 26.0361 21.5543 26.699 21.3356V14.5724C23.7162 15.6228 21.0895 16.1492 18.8175 16.1492C16.829 15.0989 14.6753 14.5724 12.3556 14.5724V14.5726H12.3554ZM30.1812 14.9007C30.2757 15.6884 30.3231 17.1116 30.3231 19.1682V39.585C30.3231 41.6859 30.2757 43.1727 30.1812 44.0476H38.2046C38.1098 43.0412 38.0626 41.4216 38.0626 39.1895V19.0368C38.0626 17.1113 38.1098 15.7321 38.2046 14.9007H30.1812V14.9007ZM12.6394 20.612C14.0597 20.612 15.171 21.1169 15.9759 22.1233C16.6384 23.0427 16.9696 24.1354 16.9696 25.4046C16.9696 28.468 15.5271 30.0001 12.6394 30.0001C9.65735 30.0001 8.16531 28.4899 8.16531 25.4701C8.16531 22.2318 9.65735 20.612 12.6394 20.612ZM13.1363 47.3308C17.1131 47.3308 19.1013 48.4457 19.1013 50.6776C19.1013 53.041 17.2786 54.2232 13.6335 54.2232C9.46775 54.2232 7.38471 53.0843 7.38471 50.8087C7.38471 48.4891 9.30206 47.3307 13.1366 47.3307L13.1363 47.3309V47.3308Z" fill="white"/>
</svg>
