<svg width="60" height="60" viewBox="0 0 60 60" fill="none" xmlns="http://www.w3.org/2000/svg">
<path d="M53.3333 0H6.66667C3 0 0 3 0 6.66667V53.3333C0 57.0033 3 60 6.66667 60H53.3333C57 60 60 57.0033 60 53.3333V6.66667C60 3 57 0 53.3333 0ZM29.9467 48.41C34.8429 48.4091 39.5382 46.4635 43.0001 43.001C46.4619 39.5386 48.4067 34.8429 48.4067 29.9467C48.4067 28.82 48.2633 27.7333 48.0633 26.6667H53.3333V50.72C53.3333 51.0229 53.2735 51.3228 53.1573 51.6025C53.0411 51.8822 52.8708 52.1362 52.6561 52.3499C52.4415 52.5636 52.1868 52.7328 51.9066 52.8478C51.6264 52.9628 51.3262 53.0213 51.0233 53.02H8.97667C8.67379 53.0213 8.37363 52.9628 8.09342 52.8478C7.81322 52.7328 7.55849 52.5636 7.34385 52.3499C7.12922 52.1362 6.95891 51.8822 6.84269 51.6025C6.72648 51.3228 6.66666 51.0229 6.66667 50.72V26.6667H11.83C11.6267 27.7333 11.4833 28.82 11.4833 29.9467C11.4842 34.8432 13.4297 39.5389 16.8921 43.0012C20.3544 46.4636 25.0502 48.4091 29.9467 48.41ZM18.41 29.9467C18.41 28.4317 18.7084 26.9315 19.2882 25.5318C19.8679 24.1321 20.7177 22.8603 21.789 21.789C22.8603 20.7177 24.1321 19.8679 25.5318 19.2882C26.9315 18.7084 28.4317 18.41 29.9467 18.41C31.4617 18.41 32.9619 18.7084 34.3616 19.2882C35.7612 19.8679 37.033 20.7177 38.1043 21.789C39.1756 22.8603 40.0254 24.1321 40.6052 25.5318C41.1849 26.9315 41.4833 28.4317 41.4833 29.9467C41.4833 33.0064 40.2679 35.9408 38.1043 38.1043C35.9408 40.2679 33.0064 41.4833 29.9467 41.4833C26.887 41.4833 23.9526 40.2679 21.789 38.1043C19.6255 35.9408 18.41 33.0064 18.41 29.9467ZM51.0233 16.6667H45.64C45.0288 16.6649 44.4431 16.4213 44.0109 15.9891C43.5787 15.5569 43.3351 14.9712 43.3333 14.36V8.97C43.3333 7.69667 44.3667 6.66667 45.6367 6.66667H51.02C52.3 6.66667 53.3333 7.69667 53.3333 8.97V14.3567C53.3333 15.6267 52.3 16.6667 51.0233 16.6667Z" fill="white"/>
</svg>
