<svg width="60" height="50" viewBox="0 0 60 50" fill="none" xmlns="http://www.w3.org/2000/svg">
<path d="M10 0C7.34784 0 4.8043 1.05357 2.92893 2.92893C1.05357 4.8043 0 7.34783 0 10V11.005L30 27.16L60 11.01V10C60 7.34783 58.9464 4.8043 57.0711 2.92893C55.1957 1.05357 52.6522 0 50 0H10Z" fill="white"/>
<path d="M60 16.6848L31.185 32.1998C30.8208 32.3959 30.4136 32.4985 30 32.4985C29.5864 32.4985 29.1792 32.3959 28.815 32.1998L0 16.6848V39.9998C0 42.652 1.05357 45.1955 2.92893 47.0709C4.8043 48.9462 7.34784 49.9998 10 49.9998H50C52.6522 49.9998 55.1957 48.9462 57.0711 47.0709C58.9464 45.1955 60 42.652 60 39.9998V16.6848Z" fill="white"/>
</svg>
