<svg width="80" height="80" viewBox="0 0 80 80" fill="none" xmlns="http://www.w3.org/2000/svg">
<path d="M45.6365 0C43.8061 0 42.2442 0.641387 40.9501 1.92512C39.6564 3.2091 39.0111 4.75608 39.0111 6.56511C39.0111 8.31577 39.6561 9.83153 40.9501 11.1152C42.2442 12.3992 43.8062 13.0425 45.6365 13.0425C47.404 13.0425 48.9344 12.3992 50.2285 11.1152C51.5225 9.83153 52.17 8.31577 52.17 6.56511C52.17 4.756 51.5226 3.2091 50.2285 1.92512C48.9347 0.641467 47.404 0 45.6365 0ZM59.8312 12.5175C60.0203 13.5096 60.1151 14.8211 60.1151 16.4551V19.8675H55.4774V28.3575C56.8028 28.1825 57.875 28.0976 58.6956 28.0976L60.1154 28.1827V28.3578H60.021V44.0253C60.021 48.9275 60.6859 52.5167 62.0113 54.7927C63.7788 57.8268 66.9659 59.3428 71.5735 59.3428C74.8557 59.3428 77.6645 58.7604 80 57.5927V48.84C78.4215 49.8323 76.6536 50.3274 74.6971 50.3274C71.9199 50.3274 70.5326 48.3723 70.5326 44.4625V28.1824H74.6026C75.3602 28.1824 76.1654 28.2116 77.0176 28.2698C77.8698 28.3282 78.4519 28.3571 78.7674 28.3571V19.8671H70.533V16.2796C70.533 14.8793 70.6278 13.626 70.8169 12.517H59.8323L59.8314 12.5173L59.8312 12.5175ZM16.4739 19.4301C12.1818 19.4301 8.49049 20.7442 5.39734 23.37C2.17861 26.1708 0.567603 29.671 0.567603 33.8724C0.567603 36.6733 1.45045 39.2994 3.21769 41.7499C4.79561 44.0254 6.59568 45.4855 8.61546 46.1276V46.3026C6.59568 47.1187 5.58674 49.1624 5.58674 52.43C5.58674 54.9395 6.6589 56.8047 8.80486 58.03V58.205C2.93519 60.0138 0 63.3687 0 68.27C0 72.5302 1.95717 75.6536 5.87098 77.6374C8.96326 79.2131 12.9077 80 17.7046 80C29.3815 80 35.2202 75.4775 35.2202 66.4326C35.2202 60.7726 30.7065 57.3009 21.6801 56.0174C19.5975 55.7258 18.0207 55.0265 16.9476 53.9176C16.1271 53.1593 15.7171 52.3987 15.7171 51.6401C15.7171 49.4812 16.9789 48.2279 19.5029 47.8775C23.3531 47.3529 26.4942 45.7042 28.9245 42.9326C31.3546 40.1606 32.5698 36.907 32.5698 33.1725C32.5698 32.0054 32.3175 30.7518 31.8128 29.41C33.4542 29.0596 34.7148 28.739 35.5986 28.4474V19.4298C31.6217 20.8304 28.1194 21.5322 25.09 21.5322C22.4387 20.1319 19.5671 19.4298 16.4741 19.4298V19.4301H16.4739ZM40.2415 19.8676C40.3676 20.9178 40.4309 22.8155 40.4309 25.5576V52.78C40.4309 55.5812 40.3676 57.5636 40.2415 58.7301H50.9395C50.813 57.3882 50.7502 55.2288 50.7502 52.2526V25.3825C50.7502 22.8151 50.813 20.9762 50.9395 19.8675H40.2415V19.8676ZM16.8525 27.4827C18.7462 27.4827 20.228 28.1558 21.3011 29.4977C22.1846 30.7235 22.6262 32.1805 22.6262 33.8728C22.6262 37.9573 20.7028 40.0002 16.8525 40.0002C12.8765 40.0002 10.8871 37.9866 10.8871 33.9601C10.8871 29.6424 12.8765 27.4827 16.8525 27.4827V27.4827ZM17.5151 63.1078C22.8174 63.1078 25.4684 64.5943 25.4684 67.5702C25.4684 70.7214 23.0381 72.2976 18.1779 72.2976C12.6237 72.2976 9.84628 70.779 9.84628 67.745C9.84628 64.6522 12.4027 63.1075 17.5154 63.1075L17.5151 63.1079V63.1078Z" fill="#706F7B"/>
</svg>
