<svg width="80" height="80" viewBox="0 0 80 80" fill="none" xmlns="http://www.w3.org/2000/svg">
<path d="M71.1111 0H8.88889C4 0 0 4 0 8.88889V71.1111C0 76.0044 4 80 8.88889 80H71.1111C76 80 80 76.0044 80 71.1111V8.88889C80 4 76 0 71.1111 0ZM39.9289 64.5467C46.4572 64.5455 52.7176 61.9513 57.3334 57.3347C61.9492 52.7181 64.5422 46.4572 64.5422 39.9289C64.5422 38.4267 64.3511 36.9778 64.0844 35.5556H71.1111V67.6267C71.1111 68.0305 71.0314 68.4304 70.8764 68.8033C70.7215 69.1763 70.4944 69.5149 70.2082 69.7999C69.922 70.0848 69.5824 70.3104 69.2088 70.4637C68.8352 70.6171 68.435 70.6951 68.0311 70.6933H11.9689C11.565 70.6951 11.1648 70.6171 10.7912 70.4637C10.4176 70.3104 10.078 70.0848 9.7918 69.7999C9.50562 69.5149 9.27854 69.1763 9.12359 68.8033C8.96865 68.4304 8.88889 68.0305 8.88889 67.6267V35.5556H15.7733C15.5022 36.9778 15.3111 38.4267 15.3111 39.9289C15.3123 46.4576 17.9063 52.7185 22.5228 57.335C27.1393 61.9515 33.4002 64.5455 39.9289 64.5467V64.5467ZM24.5467 39.9289C24.5467 37.9089 24.9445 35.9086 25.7176 34.0424C26.4906 32.1761 27.6236 30.4804 29.052 29.052C30.4804 27.6236 32.1761 26.4906 34.0424 25.7176C35.9086 24.9445 37.9089 24.5467 39.9289 24.5467C41.9489 24.5467 43.9492 24.9445 45.8154 25.7176C47.6817 26.4906 49.3774 27.6236 50.8058 29.052C52.2341 30.4804 53.3672 32.1761 54.1402 34.0424C54.9132 35.9086 55.3111 37.9089 55.3111 39.9289C55.3111 44.0085 53.6905 47.921 50.8058 50.8058C47.921 53.6905 44.0085 55.3111 39.9289 55.3111C35.8493 55.3111 31.9367 53.6905 29.052 50.8058C26.1673 47.921 24.5467 44.0085 24.5467 39.9289V39.9289ZM68.0311 22.2222H60.8533C60.0384 22.2199 59.2575 21.8951 58.6812 21.3188C58.1049 20.7426 57.7801 19.9616 57.7778 19.1467V11.96C57.7778 10.2622 59.1556 8.88889 60.8489 8.88889H68.0267C69.7333 8.88889 71.1111 10.2622 71.1111 11.96V19.1422C71.1111 20.8356 69.7333 22.2222 68.0311 22.2222Z" fill="#706F7B"/>
</svg>
